<mxfile host="app.diagrams.net" agent="Mozilla/5.0 (Windows NT 10.0; Win64; x64) AppleWebKit/537.36 (KHTML, like Gecko) Chrome/133.0.0.0 Safari/537.36 Edg/133.0.0.0" version="26.0.15">
  <diagram name="Page-1" id="jNWJa_NcbyEefZS4BcrH">
    <mxGraphModel dx="1426" dy="815" grid="1" gridSize="10" guides="1" tooltips="1" connect="1" arrows="1" fold="1" page="1" pageScale="1" pageWidth="850" pageHeight="1100" math="0" shadow="0">
      <root>
        <mxCell id="0" />
        <mxCell id="1" parent="0" />
        <mxCell id="ORL9s2TWvGtJdvbiBX_S-55" value="" style="ellipse;whiteSpace=wrap;html=1;aspect=fixed;fillColor=#dae8fc;strokeColor=#6c8ebf;gradientColor=#7ea6e0;" vertex="1" parent="1">
          <mxGeometry x="355" y="590" width="80" height="80" as="geometry" />
        </mxCell>
        <mxCell id="ORL9s2TWvGtJdvbiBX_S-62" style="edgeStyle=orthogonalEdgeStyle;rounded=0;orthogonalLoop=1;jettySize=auto;html=1;" edge="1" parent="1" source="ORL9s2TWvGtJdvbiBX_S-54" target="ORL9s2TWvGtJdvbiBX_S-8">
          <mxGeometry relative="1" as="geometry">
            <mxPoint x="740" y="20" as="targetPoint" />
            <Array as="points">
              <mxPoint x="775" y="70" />
              <mxPoint x="741" y="70" />
              <mxPoint x="741" y="115" />
            </Array>
          </mxGeometry>
        </mxCell>
        <mxCell id="ORL9s2TWvGtJdvbiBX_S-54" value="" style="ellipse;whiteSpace=wrap;html=1;aspect=fixed;fillColor=#1ba1e2;fontColor=#ffffff;strokeColor=#006EAF;" vertex="1" parent="1">
          <mxGeometry x="735" y="240" width="80" height="80" as="geometry" />
        </mxCell>
        <mxCell id="ORL9s2TWvGtJdvbiBX_S-53" value="" style="ellipse;whiteSpace=wrap;html=1;aspect=fixed;fillColor=#ffcccc;strokeColor=#36393d;" vertex="1" parent="1">
          <mxGeometry x="115" y="240" width="80" height="80" as="geometry" />
        </mxCell>
        <mxCell id="ORL9s2TWvGtJdvbiBX_S-3" value="user&lt;div&gt;&lt;br&gt;&lt;/div&gt;" style="shape=umlActor;verticalLabelPosition=bottom;verticalAlign=top;html=1;outlineConnect=0;" vertex="1" parent="1">
          <mxGeometry x="140" y="250" width="30" height="60" as="geometry" />
        </mxCell>
        <mxCell id="ORL9s2TWvGtJdvbiBX_S-8" value="log in&amp;nbsp;" style="ellipse;whiteSpace=wrap;html=1;fillColor=#b1ddf0;strokeColor=#10739e;" vertex="1" parent="1">
          <mxGeometry x="350" y="90" width="120" height="50" as="geometry" />
        </mxCell>
        <mxCell id="ORL9s2TWvGtJdvbiBX_S-26" value="Admin" style="shape=umlActor;verticalLabelPosition=bottom;verticalAlign=top;html=1;outlineConnect=0;" vertex="1" parent="1">
          <mxGeometry x="760" y="250" width="30" height="60" as="geometry" />
        </mxCell>
        <mxCell id="ORL9s2TWvGtJdvbiBX_S-27" value="external sysem" style="shape=umlActor;verticalLabelPosition=bottom;verticalAlign=top;html=1;outlineConnect=0;" vertex="1" parent="1">
          <mxGeometry x="380" y="600" width="30" height="60" as="geometry" />
        </mxCell>
        <mxCell id="ORL9s2TWvGtJdvbiBX_S-28" value="manage task" style="ellipse;whiteSpace=wrap;html=1;fillColor=#e3c800;strokeColor=#B09500;fontColor=#000000;" vertex="1" parent="1">
          <mxGeometry x="470" y="140" width="120" height="50" as="geometry" />
        </mxCell>
        <mxCell id="ORL9s2TWvGtJdvbiBX_S-32" value="track issue" style="ellipse;whiteSpace=wrap;html=1;fillColor=#e51400;fontColor=#ffffff;strokeColor=#B20000;" vertex="1" parent="1">
          <mxGeometry x="470" y="210" width="120" height="50" as="geometry" />
        </mxCell>
        <mxCell id="ORL9s2TWvGtJdvbiBX_S-33" style="edgeStyle=orthogonalEdgeStyle;rounded=0;orthogonalLoop=1;jettySize=auto;html=1;exitX=0.5;exitY=1;exitDx=0;exitDy=0;" edge="1" parent="1" source="ORL9s2TWvGtJdvbiBX_S-28" target="ORL9s2TWvGtJdvbiBX_S-28">
          <mxGeometry relative="1" as="geometry" />
        </mxCell>
        <mxCell id="ORL9s2TWvGtJdvbiBX_S-34" value="user story" style="ellipse;whiteSpace=wrap;html=1;fillColor=#ffcd28;gradientColor=#ffa500;strokeColor=#d79b00;" vertex="1" parent="1">
          <mxGeometry x="470" y="280" width="120" height="50" as="geometry" />
        </mxCell>
        <mxCell id="ORL9s2TWvGtJdvbiBX_S-35" value="sync data" style="ellipse;whiteSpace=wrap;html=1;fillColor=#dae8fc;gradientColor=#7ea6e0;strokeColor=#6c8ebf;" vertex="1" parent="1">
          <mxGeometry x="470" y="360" width="120" height="40" as="geometry" />
        </mxCell>
        <mxCell id="ORL9s2TWvGtJdvbiBX_S-36" value="generate report" style="ellipse;whiteSpace=wrap;html=1;fillColor=#d5e8d4;gradientColor=#97d077;strokeColor=#82b366;" vertex="1" parent="1">
          <mxGeometry x="305" y="360" width="120" height="40" as="geometry" />
        </mxCell>
        <mxCell id="ORL9s2TWvGtJdvbiBX_S-50" value="" style="endArrow=classic;html=1;rounded=0;entryX=0.5;entryY=1;entryDx=0;entryDy=0;" edge="1" parent="1" target="ORL9s2TWvGtJdvbiBX_S-35">
          <mxGeometry width="50" height="50" relative="1" as="geometry">
            <mxPoint x="395" y="590" as="sourcePoint" />
            <mxPoint x="520" y="440" as="targetPoint" />
          </mxGeometry>
        </mxCell>
        <mxCell id="ORL9s2TWvGtJdvbiBX_S-56" value="" style="endArrow=classic;html=1;rounded=0;entryX=0;entryY=0.5;entryDx=0;entryDy=0;" edge="1" parent="1" target="ORL9s2TWvGtJdvbiBX_S-28">
          <mxGeometry width="50" height="50" relative="1" as="geometry">
            <mxPoint x="200" y="280" as="sourcePoint" />
            <mxPoint x="340" y="140" as="targetPoint" />
          </mxGeometry>
        </mxCell>
        <mxCell id="ORL9s2TWvGtJdvbiBX_S-57" value="" style="endArrow=classic;html=1;rounded=0;entryX=0.083;entryY=0.88;entryDx=0;entryDy=0;entryPerimeter=0;" edge="1" parent="1" target="ORL9s2TWvGtJdvbiBX_S-8">
          <mxGeometry width="50" height="50" relative="1" as="geometry">
            <mxPoint x="200" y="280" as="sourcePoint" />
            <mxPoint x="250" y="230" as="targetPoint" />
          </mxGeometry>
        </mxCell>
        <mxCell id="ORL9s2TWvGtJdvbiBX_S-59" value="" style="endArrow=classic;html=1;rounded=0;entryX=0;entryY=0.5;entryDx=0;entryDy=0;" edge="1" parent="1" target="ORL9s2TWvGtJdvbiBX_S-32">
          <mxGeometry width="50" height="50" relative="1" as="geometry">
            <mxPoint x="200" y="280" as="sourcePoint" />
            <mxPoint x="310" y="255" as="targetPoint" />
          </mxGeometry>
        </mxCell>
        <mxCell id="ORL9s2TWvGtJdvbiBX_S-60" value="" style="endArrow=classic;html=1;rounded=0;entryX=0;entryY=0.5;entryDx=0;entryDy=0;" edge="1" parent="1" target="ORL9s2TWvGtJdvbiBX_S-34">
          <mxGeometry width="50" height="50" relative="1" as="geometry">
            <mxPoint x="200" y="280" as="sourcePoint" />
            <mxPoint x="460" y="280" as="targetPoint" />
          </mxGeometry>
        </mxCell>
        <mxCell id="ORL9s2TWvGtJdvbiBX_S-61" value="" style="endArrow=classic;html=1;rounded=0;entryX=1;entryY=0.5;entryDx=0;entryDy=0;" edge="1" parent="1" target="ORL9s2TWvGtJdvbiBX_S-28">
          <mxGeometry width="50" height="50" relative="1" as="geometry">
            <mxPoint x="730" y="280" as="sourcePoint" />
            <mxPoint x="730" y="150" as="targetPoint" />
          </mxGeometry>
        </mxCell>
        <mxCell id="ORL9s2TWvGtJdvbiBX_S-63" value="" style="endArrow=classic;html=1;rounded=0;entryX=1;entryY=0.5;entryDx=0;entryDy=0;" edge="1" parent="1" target="ORL9s2TWvGtJdvbiBX_S-32">
          <mxGeometry width="50" height="50" relative="1" as="geometry">
            <mxPoint x="730" y="280" as="sourcePoint" />
            <mxPoint x="690" y="270" as="targetPoint" />
          </mxGeometry>
        </mxCell>
        <mxCell id="ORL9s2TWvGtJdvbiBX_S-64" value="" style="endArrow=classic;html=1;rounded=0;entryX=1.008;entryY=0.38;entryDx=0;entryDy=0;entryPerimeter=0;" edge="1" parent="1" target="ORL9s2TWvGtJdvbiBX_S-34">
          <mxGeometry width="50" height="50" relative="1" as="geometry">
            <mxPoint x="730" y="280" as="sourcePoint" />
            <mxPoint x="460" y="280" as="targetPoint" />
          </mxGeometry>
        </mxCell>
        <mxCell id="ORL9s2TWvGtJdvbiBX_S-65" value="" style="endArrow=classic;html=1;rounded=0;entryX=1;entryY=0.5;entryDx=0;entryDy=0;" edge="1" parent="1" target="ORL9s2TWvGtJdvbiBX_S-35">
          <mxGeometry width="50" height="50" relative="1" as="geometry">
            <mxPoint x="730" y="280" as="sourcePoint" />
            <mxPoint x="700" y="330" as="targetPoint" />
          </mxGeometry>
        </mxCell>
        <mxCell id="ORL9s2TWvGtJdvbiBX_S-66" value="" style="endArrow=classic;html=1;rounded=0;entryX=1;entryY=0;entryDx=0;entryDy=0;" edge="1" parent="1">
          <mxGeometry width="50" height="50" relative="1" as="geometry">
            <mxPoint x="720" y="280" as="sourcePoint" />
            <mxPoint x="424.99640687119273" y="375.85786437626916" as="targetPoint" />
          </mxGeometry>
        </mxCell>
      </root>
    </mxGraphModel>
  </diagram>
</mxfile>
